<svg xmlns="http://www.w3.org/2000/svg" viewBox="0 0 1920 960" width="1920" height="960"><polygon fill="rgba(0,0,0,0.31822369751501156)" points="0,0 0,172.96729521398447 79.62501804980508,0"></polygon><polygon fill="rgba(0,0,0,0.08709214764318444)" points="0,172.96729521398447 79.62501804980508,0 73.99869221932857,180.3659205809189"></polygon><polygon fill="rgba(0,0,0,0.07172143332023025)" points="79.62501804980508,0 73.99869221932857,180.3659205809189 304.01305552377346,0"></polygon><polygon fill="rgba(0,0,0,0.27203929866709703)" points="73.99869221932857,180.3659205809189 304.01305552377346,0 221.27075164221833,90.83290172172374"></polygon><polygon fill="rgba(0,0,0,0.3129010681261821)" points="304.01305552377346,0 221.27075164221833,90.83290172172374 450.6782208927797,0"></polygon><polygon fill="rgba(0,0,0,0.2791654339210226)" points="221.27075164221833,90.83290172172374 450.6782208927797,0 377.45408225337496,155.6921873162495"></polygon><polygon fill="rgba(0,0,0,0.3021231165170816)" points="450.6782208927797,0 377.45408225337496,155.6921873162495 494.6871713763603,0"></polygon><polygon fill="rgba(0,0,0,0.03264147587874966)" points="377.45408225337496,155.6921873162495 494.6871713763603,0 498.6573529323962,170.41550500897972"></polygon><polygon fill="rgba(0,0,0,0.167553339189867)" points="494.6871713763603,0 498.6573529323962,170.41550500897972 739.1267195481806,0"></polygon><polygon fill="rgba(0,0,0,0.139671165094199)" points="498.6573529323962,170.41550500897972 739.1267195481806,0 669.8767158225778,114.72504365632096"></polygon><polygon fill="rgba(0,0,0,0.12932897960394416)" points="739.1267195481806,0 669.8767158225778,114.72504365632096 893.9753639806942,0"></polygon><polygon fill="rgba(0,0,0,0.22428553753590552)" points="669.8767158225778,114.72504365632096 893.9753639806942,0 840.2066189461565,154.632082080873"></polygon><polygon fill="rgba(0,0,0,0.13792045259546995)" points="893.9753639806942,0 840.2066189461565,154.632082080873 965.2885597708439,0"></polygon><polygon fill="rgba(0,0,0,0.02079254026317982)" points="840.2066189461565,154.632082080873 965.2885597708439,0 947.6923590917894,125.18855188805429"></polygon><polygon fill="rgba(0,0,0,0.32229226997749577)" points="965.2885597708439,0 947.6923590917894,125.18855188805429 1048.8064706467117,0"></polygon><polygon fill="rgba(0,0,0,0.10863158335404521)" points="947.6923590917894,125.18855188805429 1048.8064706467117,0 1060.5061735749857,149.6620174319695"></polygon><polygon fill="rgba(0,0,0,0.2427261132905648)" points="1048.8064706467117,0 1060.5061735749857,149.6620174319695 1263.799741228987,0"></polygon><polygon fill="rgba(0,0,0,0.23077749886909105)" points="1060.5061735749857,149.6620174319695 1263.799741228987,0 1211.6902910393203,75.25803565636573"></polygon><polygon fill="rgba(0,0,0,0.31632989459180816)" points="1263.799741228987,0 1211.6902910393203,75.25803565636573 1445.177849068666,0"></polygon><polygon fill="rgba(0,0,0,0.07020254437048767)" points="1211.6902910393203,75.25803565636573 1445.177849068666,0 1387.0819890205412,110.02455865639698"></polygon><polygon fill="rgba(0,0,0,0.1708282571083766)" points="1445.177849068666,0 1387.0819890205412,110.02455865639698 1466.6849306892539,0"></polygon><polygon fill="rgba(0,0,0,0.3016236836899379)" points="1387.0819890205412,110.02455865639698 1466.6849306892539,0 1566.3172712697544,75.12741494209266"></polygon><polygon fill="rgba(0,0,0,0.06791750257090338)" points="1466.6849306892539,0 1566.3172712697544,75.12741494209266 1658.5048692151981,101.25139102543821"></polygon><polygon fill="rgba(0,0,0,0.33209047897052896)" points="1466.6849306892539,0 1628.9397101571783,0 1658.5048692151981,101.25139102543821"></polygon><polygon fill="rgba(0,0,0,0.10935598673189906)" points="1628.9397101571783,0 1658.5048692151981,101.25139102543821 1769.2295847298506,0"></polygon><polygon fill="rgba(0,0,0,0.3326209200708375)" points="1658.5048692151981,101.25139102543821 1769.2295847298506,0 1758.6443683918783,92.35453811644669"></polygon><polygon fill="rgba(0,0,0,0.19118069001300972)" points="1769.2295847298506,0 1758.6443683918783,92.35453811644669 1932,89.52747063282908"></polygon><polygon fill="rgba(0,0,0,0.12734727804252421)" points="1769.2295847298506,0 1932,0 1932,89.52747063282908"></polygon><polygon fill="rgba(0,0,0,0.09142594294310398)" points="0,172.96729521398447 0,296.5866249616442 92.16463108500557,342.9741135692777"></polygon><polygon fill="rgba(0,0,0,0.05004582718024608)" points="0,172.96729521398447 73.99869221932857,180.3659205809189 92.16463108500557,342.9741135692777"></polygon><polygon fill="rgba(0,0,0,0.17863745054089722)" points="73.99869221932857,180.3659205809189 92.16463108500557,342.9741135692777 339.43472639116226,276.5112403640252"></polygon><polygon fill="rgba(0,0,0,0.15886374205185916)" points="73.99869221932857,180.3659205809189 221.27075164221833,90.83290172172374 339.43472639116226,276.5112403640252"></polygon><polygon fill="rgba(0,0,0,0.08428296879250918)" points="221.27075164221833,90.83290172172374 339.43472639116226,276.5112403640252 472.05362702300795,292.62001964916624"></polygon><polygon fill="rgba(0,0,0,0.12017819579385906)" points="221.27075164221833,90.83290172172374 377.45408225337496,155.6921873162495 472.05362702300795,292.62001964916624"></polygon><polygon fill="rgba(0,0,0,0.059557810752497185)" points="377.45408225337496,155.6921873162495 472.05362702300795,292.62001964916624 523.3401834624141,213.67418104967174"></polygon><polygon fill="rgba(0,0,0,0.06005645138030047)" points="377.45408225337496,155.6921873162495 498.6573529323962,170.41550500897972 523.3401834624141,213.67418104967174"></polygon><polygon fill="rgba(0,0,0,0.2902023875676541)" points="498.6573529323962,170.41550500897972 523.3401834624141,213.67418104967174 633.0661883830373,274.53042745781283"></polygon><polygon fill="rgba(0,0,0,0.30720914510795727)" points="498.6573529323962,170.41550500897972 669.8767158225778,114.72504365632096 633.0661883830373,274.53042745781283"></polygon><polygon fill="rgba(0,0,0,0.26899121475245824)" points="669.8767158225778,114.72504365632096 633.0661883830373,274.53042745781283 840.2066189461565,154.632082080873"></polygon><polygon fill="rgba(0,0,0,0.11347656647557991)" points="633.0661883830373,274.53042745781283 840.2066189461565,154.632082080873 873.5227753480333,261.67981177172607"></polygon><polygon fill="rgba(0,0,0,0.1942339709396135)" points="840.2066189461565,154.632082080873 873.5227753480333,261.67981177172607 899.988385313177,222.66178080894173"></polygon><polygon fill="rgba(0,0,0,0.08272541382653627)" points="840.2066189461565,154.632082080873 947.6923590917894,125.18855188805429 899.988385313177,222.66178080894173"></polygon><polygon fill="rgba(0,0,0,0.2629500124654804)" points="947.6923590917894,125.18855188805429 899.988385313177,222.66178080894173 1060.5061735749857,149.6620174319695"></polygon><polygon fill="rgba(0,0,0,0.16048120357494688)" points="899.988385313177,222.66178080894173 1060.5061735749857,149.6620174319695 1079.0626664095528,228.09069124968414"></polygon><polygon fill="rgba(0,0,0,0.2646540366205699)" points="1060.5061735749857,149.6620174319695 1079.0626664095528,228.09069124968414 1295.9404593842244,329.94133078516774"></polygon><polygon fill="rgba(0,0,0,0.30109233638550903)" points="1060.5061735749857,149.6620174319695 1211.6902910393203,75.25803565636573 1295.9404593842244,329.94133078516774"></polygon><polygon fill="rgba(0,0,0,0.2858075293410351)" points="1211.6902910393203,75.25803565636573 1295.9404593842244,329.94133078516774 1387.0819890205412,110.02455865639698"></polygon><polygon fill="rgba(0,0,0,0.054020435037233784)" points="1295.9404593842244,329.94133078516774 1387.0819890205412,110.02455865639698 1378.0665599660795,222.7156600494052"></polygon><polygon fill="rgba(0,0,0,0.2777045083070799)" points="1387.0819890205412,110.02455865639698 1378.0665599660795,222.7156600494052 1537.18981689885,305.8025847756672"></polygon><polygon fill="rgba(0,0,0,0.3111168297300105)" points="1387.0819890205412,110.02455865639698 1566.3172712697544,75.12741494209266 1537.18981689885,305.8025847756672"></polygon><polygon fill="rgba(0,0,0,0.13132852581347174)" points="1566.3172712697544,75.12741494209266 1537.18981689885,305.8025847756672 1693.7643609014328,261.65166728245765"></polygon><polygon fill="rgba(0,0,0,0.06965236122485412)" points="1566.3172712697544,75.12741494209266 1658.5048692151981,101.25139102543821 1693.7643609014328,261.65166728245765"></polygon><polygon fill="rgba(0,0,0,0.04035808501654351)" points="1658.5048692151981,101.25139102543821 1693.7643609014328,261.65166728245765 1777.6615791124013,282.7305291585653"></polygon><polygon fill="rgba(0,0,0,0.15623651743430467)" points="1658.5048692151981,101.25139102543821 1758.6443683918783,92.35453811644669 1777.6615791124013,282.7305291585653"></polygon><polygon fill="rgba(0,0,0,0.039771110446927084)" points="1758.6443683918783,92.35453811644669 1777.6615791124013,282.7305291585653 1932,89.52747063282908"></polygon><polygon fill="rgba(0,0,0,0.24775042257353533)" points="1777.6615791124013,282.7305291585653 1932,89.52747063282908 1932,262.86697843734805"></polygon><polygon fill="rgba(0,0,0,0.04031034351216486)" points="0,296.5866249616442 0,427.38116762950375 102.15214287225271,475.77429371666244"></polygon><polygon fill="rgba(0,0,0,0.12770840020565133)" points="0,296.5866249616442 92.16463108500557,342.9741135692777 102.15214287225271,475.77429371666244"></polygon><polygon fill="rgba(0,0,0,0.0886656284779888)" points="92.16463108500557,342.9741135692777 102.15214287225271,475.77429371666244 214.27815818434914,376.96998088983054"></polygon><polygon fill="rgba(0,0,0,0.20189451941380623)" points="92.16463108500557,342.9741135692777 339.43472639116226,276.5112403640252 214.27815818434914,376.96998088983054"></polygon><polygon fill="rgba(0,0,0,0.304499708458228)" points="339.43472639116226,276.5112403640252 214.27815818434914,376.96998088983054 472.05362702300795,292.62001964916624"></polygon><polygon fill="rgba(0,0,0,0.3019061433442927)" points="214.27815818434914,376.96998088983054 472.05362702300795,292.62001964916624 438.1744105362102,363.729321605332"></polygon><polygon fill="rgba(0,0,0,0.2213671619456694)" points="472.05362702300795,292.62001964916624 438.1744105362102,363.729321605332 523.3401834624141,213.67418104967174"></polygon><polygon fill="rgba(0,0,0,0.2255678189753343)" points="438.1744105362102,363.729321605332 523.3401834624141,213.67418104967174 577.7634368122469,347.16691307699426"></polygon><polygon fill="rgba(0,0,0,0.11137266730874622)" points="523.3401834624141,213.67418104967174 577.7634368122469,347.16691307699426 633.0661883830373,274.53042745781283"></polygon><polygon fill="rgba(0,0,0,0.16694303097914268)" points="577.7634368122469,347.16691307699426 633.0661883830373,274.53042745781283 749.5362317805769,463.3091068519976"></polygon><polygon fill="rgba(0,0,0,0.2811188586217412)" points="633.0661883830373,274.53042745781283 749.5362317805769,463.3091068519976 840.1522931731714,432.5165328462243"></polygon><polygon fill="rgba(0,0,0,0.12529845196879433)" points="633.0661883830373,274.53042745781283 873.5227753480333,261.67981177172607 840.1522931731714,432.5165328462243"></polygon><polygon fill="rgba(0,0,0,0.008978958076983493)" points="873.5227753480333,261.67981177172607 840.1522931731714,432.5165328462243 990.8777244313462,385.7930697637472"></polygon><polygon fill="rgba(0,0,0,0.17300138481342)" points="873.5227753480333,261.67981177172607 899.988385313177,222.66178080894173 990.8777244313462,385.7930697637472"></polygon><polygon fill="rgba(0,0,0,0.1554911277508698)" points="899.988385313177,222.66178080894173 990.8777244313462,385.7930697637472 1079.0626664095528,228.09069124968414"></polygon><polygon fill="rgba(0,0,0,0.005759704755881982)" points="990.8777244313462,385.7930697637472 1079.0626664095528,228.09069124968414 1115.4215469328656,377.80016739655434"></polygon><polygon fill="rgba(0,0,0,0.022886959907728082)" points="1079.0626664095528,228.09069124968414 1115.4215469328656,377.80016739655434 1230.119438813985,472.01437431310956"></polygon><polygon fill="rgba(0,0,0,0.16689653442574226)" points="1079.0626664095528,228.09069124968414 1295.9404593842244,329.94133078516774 1230.119438813985,472.01437431310956"></polygon><polygon fill="rgba(0,0,0,0.13520574262054755)" points="1295.9404593842244,329.94133078516774 1230.119438813985,472.01437431310956 1332.9893104468733,362.9451150836433"></polygon><polygon fill="rgba(0,0,0,0.003380944813316522)" points="1295.9404593842244,329.94133078516774 1378.0665599660795,222.7156600494052 1332.9893104468733,362.9451150836433"></polygon><polygon fill="rgba(0,0,0,0.24889880567626885)" points="1378.0665599660795,222.7156600494052 1332.9893104468733,362.9451150836433 1537.18981689885,305.8025847756672"></polygon><polygon fill="rgba(0,0,0,0.18885905297411884)" points="1332.9893104468733,362.9451150836433 1537.18981689885,305.8025847756672 1509.0152606383901,375.01521707370216"></polygon><polygon fill="rgba(0,0,0,0.13136870849043855)" points="1537.18981689885,305.8025847756672 1509.0152606383901,375.01521707370216 1632.4497542454676,350.6096770115843"></polygon><polygon fill="rgba(0,0,0,0.2732574649059491)" points="1537.18981689885,305.8025847756672 1693.7643609014328,261.65166728245765 1632.4497542454676,350.6096770115843"></polygon><polygon fill="rgba(0,0,0,0.3279354991035938)" points="1693.7643609014328,261.65166728245765 1632.4497542454676,350.6096770115843 1841.5362106448497,393.6557851165255"></polygon><polygon fill="rgba(0,0,0,0.07278502445162989)" points="1693.7643609014328,261.65166728245765 1777.6615791124013,282.7305291585653 1841.5362106448497,393.6557851165255"></polygon><polygon fill="rgba(0,0,0,0.3324247907143592)" points="1777.6615791124013,282.7305291585653 1841.5362106448497,393.6557851165255 1932,463.48218082824883"></polygon><polygon fill="rgba(0,0,0,0.07685993621102323)" points="1777.6615791124013,282.7305291585653 1932,262.86697843734805 1932,463.48218082824883"></polygon><polygon fill="rgba(0,0,0,0.016319800040916082)" points="0,427.38116762950375 0,508.8759926238056 102.15214287225271,475.77429371666244"></polygon><polygon fill="rgba(0,0,0,0.29084365870534634)" points="0,508.8759926238056 102.15214287225271,475.77429371666244 126.02904928537305,491.7653823090217"></polygon><polygon fill="rgba(0,0,0,0.06350285378590888)" points="102.15214287225271,475.77429371666244 126.02904928537305,491.7653823090217 214.27815818434914,376.96998088983054"></polygon><polygon fill="rgba(0,0,0,0.11488659150962921)" points="126.02904928537305,491.7653823090217 214.27815818434914,376.96998088983054 344.1283017579407,554.00132450369"></polygon><polygon fill="rgba(0,0,0,0.07526044177465104)" points="214.27815818434914,376.96998088983054 344.1283017579407,554.00132450369 407.63278509330127,541.3011030544537"></polygon><polygon fill="rgba(0,0,0,0.0058945451162068325)" points="214.27815818434914,376.96998088983054 438.1744105362102,363.729321605332 407.63278509330127,541.3011030544537"></polygon><polygon fill="rgba(0,0,0,0.06851127255376725)" points="438.1744105362102,363.729321605332 407.63278509330127,541.3011030544537 577.7634368122469,347.16691307699426"></polygon><polygon fill="rgba(0,0,0,0.2453489317735014)" points="407.63278509330127,541.3011030544537 577.7634368122469,347.16691307699426 619.1314061887346,560.5060641504886"></polygon><polygon fill="rgba(0,0,0,0.15082707106595214)" points="577.7634368122469,347.16691307699426 619.1314061887346,560.5060641504886 663.6412281966234,551.7230145609258"></polygon><polygon fill="rgba(0,0,0,0.028782892135608102)" points="577.7634368122469,347.16691307699426 749.5362317805769,463.3091068519976 663.6412281966234,551.7230145609258"></polygon><polygon fill="rgba(0,0,0,0.05310385712696682)" points="749.5362317805769,463.3091068519976 663.6412281966234,551.7230145609258 789.7398934505471,570.7769683370946"></polygon><polygon fill="rgba(0,0,0,0.21078690810068965)" points="749.5362317805769,463.3091068519976 840.1522931731714,432.5165328462243 789.7398934505471,570.7769683370946"></polygon><polygon fill="rgba(0,0,0,0.0018357547203747087)" points="840.1522931731714,432.5165328462243 789.7398934505471,570.7769683370946 990.8777244313462,385.7930697637472"></polygon><polygon fill="rgba(0,0,0,0.28229543346112373)" points="789.7398934505471,570.7769683370946 990.8777244313462,385.7930697637472 941.1968926892583,563.9385241502079"></polygon><polygon fill="rgba(0,0,0,0.022061871223728307)" points="990.8777244313462,385.7930697637472 941.1968926892583,563.9385241502079 1160.7680771781913,498.77590673060195"></polygon><polygon fill="rgba(0,0,0,0.08303400580933347)" points="990.8777244313462,385.7930697637472 1115.4215469328656,377.80016739655434 1160.7680771781913,498.77590673060195"></polygon><polygon fill="rgba(0,0,0,0.025086445095691506)" points="1115.4215469328656,377.80016739655434 1160.7680771781913,498.77590673060195 1230.119438813985,472.01437431310956"></polygon><polygon fill="rgba(0,0,0,0.09201555299829911)" points="1160.7680771781913,498.77590673060195 1230.119438813985,472.01437431310956 1176.1175864227587,570.1317824995317"></polygon><polygon fill="rgba(0,0,0,0.06683224582037843)" points="1230.119438813985,472.01437431310956 1176.1175864227587,570.1317824995317 1430.1545066746526,490.54762782328737"></polygon><polygon fill="rgba(0,0,0,0.18472760950040434)" points="1230.119438813985,472.01437431310956 1332.9893104468733,362.9451150836433 1430.1545066746526,490.54762782328737"></polygon><polygon fill="rgba(0,0,0,0.24477074744485983)" points="1332.9893104468733,362.9451150836433 1430.1545066746526,490.54762782328737 1509.0152606383901,375.01521707370216"></polygon><polygon fill="rgba(0,0,0,0.2622892623521818)" points="1430.1545066746526,490.54762782328737 1509.0152606383901,375.01521707370216 1511.6491820427589,573.2878109810405"></polygon><polygon fill="rgba(0,0,0,0.21594277572473322)" points="1509.0152606383901,375.01521707370216 1511.6491820427589,573.2878109810405 1632.4497542454676,350.6096770115843"></polygon><polygon fill="rgba(0,0,0,0.1653246734666608)" points="1511.6491820427589,573.2878109810405 1632.4497542454676,350.6096770115843 1693.4933917238045,513.0202903039412"></polygon><polygon fill="rgba(0,0,0,0.2828454005301725)" points="1632.4497542454676,350.6096770115843 1693.4933917238045,513.0202903039412 1841.5362106448497,393.6557851165255"></polygon><polygon fill="rgba(0,0,0,0.17623350529795667)" points="1693.4933917238045,513.0202903039412 1841.5362106448497,393.6557851165255 1834.0318145015265,516.6108622354881"></polygon><polygon fill="rgba(0,0,0,0.3245713920110275)" points="1841.5362106448497,393.6557851165255 1834.0318145015265,516.6108622354881 1932,483.9919014988553"></polygon><polygon fill="rgba(0,0,0,0.028614839050733216)" points="1841.5362106448497,393.6557851165255 1932,463.48218082824883 1932,483.9919014988553"></polygon><polygon fill="rgba(0,0,0,0.1809112954957416)" points="0,508.8759926238056 0,732.2735517217061 126.02904928537305,491.7653823090217"></polygon><polygon fill="rgba(0,0,0,0.13183506837350753)" points="0,732.2735517217061 126.02904928537305,491.7653823090217 142.9061559707266,721.3789501352127"></polygon><polygon fill="rgba(0,0,0,0.2542255468385679)" points="126.02904928537305,491.7653823090217 142.9061559707266,721.3789501352127 297.05028541057027,736.9418396827606"></polygon><polygon fill="rgba(0,0,0,0.048068814491254774)" points="126.02904928537305,491.7653823090217 344.1283017579407,554.00132450369 297.05028541057027,736.9418396827606"></polygon><polygon fill="rgba(0,0,0,0.24589274294507577)" points="344.1283017579407,554.00132450369 297.05028541057027,736.9418396827606 407.63278509330127,541.3011030544537"></polygon><polygon fill="rgba(0,0,0,0.2515853103746721)" points="297.05028541057027,736.9418396827606 407.63278509330127,541.3011030544537 371.1292448901247,629.6857098125629"></polygon><polygon fill="rgba(0,0,0,0.03138828982874827)" points="407.63278509330127,541.3011030544537 371.1292448901247,629.6857098125629 619.1314061887346,560.5060641504886"></polygon><polygon fill="rgba(0,0,0,0.302235527896723)" points="371.1292448901247,629.6857098125629 619.1314061887346,560.5060641504886 495.72223814569384,680.6487383404954"></polygon><polygon fill="rgba(0,0,0,0.1265174811847928)" points="619.1314061887346,560.5060641504886 495.72223814569384,680.6487383404954 684.2709692279136,647.1831954161506"></polygon><polygon fill="rgba(0,0,0,0.059825860734840086)" points="619.1314061887346,560.5060641504886 663.6412281966234,551.7230145609258 684.2709692279136,647.1831954161506"></polygon><polygon fill="rgba(0,0,0,0.3207987178218507)" points="663.6412281966234,551.7230145609258 684.2709692279136,647.1831954161506 789.7398934505471,570.7769683370946"></polygon><polygon fill="rgba(0,0,0,0.02238729284574807)" points="684.2709692279136,647.1831954161506 789.7398934505471,570.7769683370946 799.6568346829466,683.5787064942638"></polygon><polygon fill="rgba(0,0,0,0.08517474565434069)" points="789.7398934505471,570.7769683370946 799.6568346829466,683.5787064942638 969.743436517886,663.8508971817366"></polygon><polygon fill="rgba(0,0,0,0.30862331809705884)" points="789.7398934505471,570.7769683370946 941.1968926892583,563.9385241502079 969.743436517886,663.8508971817366"></polygon><polygon fill="rgba(0,0,0,0.19552464062583663)" points="941.1968926892583,563.9385241502079 969.743436517886,663.8508971817366 1160.7680771781913,498.77590673060195"></polygon><polygon fill="rgba(0,0,0,0.3249104707765976)" points="969.743436517886,663.8508971817366 1160.7680771781913,498.77590673060195 1166.20367382625,726.0278733153776"></polygon><polygon fill="rgba(0,0,0,0.29200388300030483)" points="1160.7680771781913,498.77590673060195 1166.20367382625,726.0278733153776 1176.1175864227587,570.1317824995317"></polygon><polygon fill="rgba(0,0,0,0.027190686699452498)" points="1166.20367382625,726.0278733153776 1176.1175864227587,570.1317824995317 1199.84769671931,634.4061786519565"></polygon><polygon fill="rgba(0,0,0,0.22104329127425734)" points="1176.1175864227587,570.1317824995317 1199.84769671931,634.4061786519565 1430.1545066746526,490.54762782328737"></polygon><polygon fill="rgba(0,0,0,0.21422199998036373)" points="1199.84769671931,634.4061786519565 1430.1545066746526,490.54762782328737 1339.2525442760584,680.725642084591"></polygon><polygon fill="rgba(0,0,0,0.1274980669351781)" points="1430.1545066746526,490.54762782328737 1339.2525442760584,680.725642084591 1489.7375435982613,666.4515079679638"></polygon><polygon fill="rgba(0,0,0,0.2845039281685707)" points="1430.1545066746526,490.54762782328737 1511.6491820427589,573.2878109810405 1489.7375435982613,666.4515079679638"></polygon><polygon fill="rgba(0,0,0,0.25070889687562187)" points="1511.6491820427589,573.2878109810405 1489.7375435982613,666.4515079679638 1603.6873724851287,631.6172958765308"></polygon><polygon fill="rgba(0,0,0,0.03953506897405109)" points="1511.6491820427589,573.2878109810405 1693.4933917238045,513.0202903039412 1603.6873724851287,631.6172958765308"></polygon><polygon fill="rgba(0,0,0,0.2239356322071404)" points="1693.4933917238045,513.0202903039412 1603.6873724851287,631.6172958765308 1794.1865405013757,717.8172621998888"></polygon><polygon fill="rgba(0,0,0,0.21985832916738146)" points="1693.4933917238045,513.0202903039412 1834.0318145015265,516.6108622354881 1794.1865405013757,717.8172621998888"></polygon><polygon fill="rgba(0,0,0,0.32647596734919776)" points="1834.0318145015265,516.6108622354881 1794.1865405013757,717.8172621998888 1932,483.9919014988553"></polygon><polygon fill="rgba(0,0,0,0.29556900998660884)" points="1794.1865405013757,717.8172621998888 1932,483.9919014988553 1932,750.0685781018458"></polygon><polygon fill="rgba(0,0,0,0.33278194994310034)" points="0,732.2735517217061 0,833.9490392375176 142.9061559707266,721.3789501352127"></polygon><polygon fill="rgba(0,0,0,0.17688457710035946)" points="0,833.9490392375176 142.9061559707266,721.3789501352127 79.21400704261455,896.894632620228"></polygon><polygon fill="rgba(0,0,0,0.046521495910206455)" points="142.9061559707266,721.3789501352127 79.21400704261455,896.894632620228 297.05028541057027,736.9418396827606"></polygon><polygon fill="rgba(0,0,0,0.06313395635699581)" points="79.21400704261455,896.894632620228 297.05028541057027,736.9418396827606 333.5467837960277,872.9780200223529"></polygon><polygon fill="rgba(0,0,0,0.20169386242482568)" points="297.05028541057027,736.9418396827606 333.5467837960277,872.9780200223529 371.1292448901247,629.6857098125629"></polygon><polygon fill="rgba(0,0,0,0.1509014770981062)" points="333.5467837960277,872.9780200223529 371.1292448901247,629.6857098125629 364.87841338015073,868.094539026909"></polygon><polygon fill="rgba(0,0,0,0.044103563488876486)" points="371.1292448901247,629.6857098125629 364.87841338015073,868.094539026909 495.72223814569384,680.6487383404954"></polygon><polygon fill="rgba(0,0,0,0.03299569978465485)" points="364.87841338015073,868.094539026909 495.72223814569384,680.6487383404954 507.43272312045326,766.637266785162"></polygon><polygon fill="rgba(0,0,0,0.11407766611863379)" points="495.72223814569384,680.6487383404954 507.43272312045326,766.637266785162 649.1304696565685,896.4285998221108"></polygon><polygon fill="rgba(0,0,0,0.2581982564925635)" points="495.72223814569384,680.6487383404954 684.2709692279136,647.1831954161506 649.1304696565685,896.4285998221108"></polygon><polygon fill="rgba(0,0,0,0.09080095972864617)" points="684.2709692279136,647.1831954161506 649.1304696565685,896.4285998221108 799.6568346829466,683.5787064942638"></polygon><polygon fill="rgba(0,0,0,0.2509794523443423)" points="649.1304696565685,896.4285998221108 799.6568346829466,683.5787064942638 835.5550294380868,770.8957783998991"></polygon><polygon fill="rgba(0,0,0,0.33121709964202684)" points="799.6568346829466,683.5787064942638 835.5550294380868,770.8957783998991 946.3863402011287,785.3789791956328"></polygon><polygon fill="rgba(0,0,0,0.13695798928533462)" points="799.6568346829466,683.5787064942638 969.743436517886,663.8508971817366 946.3863402011287,785.3789791956328"></polygon><polygon fill="rgba(0,0,0,0.1894024865916961)" points="969.743436517886,663.8508971817366 946.3863402011287,785.3789791956328 1166.20367382625,726.0278733153776"></polygon><polygon fill="rgba(0,0,0,0.2795951133483642)" points="946.3863402011287,785.3789791956328 1166.20367382625,726.0278733153776 1160.58131101852,771.3330531023119"></polygon><polygon fill="rgba(0,0,0,0.22420795501372562)" points="1166.20367382625,726.0278733153776 1160.58131101852,771.3330531023119 1195.2806607279995,831.6231310914292"></polygon><polygon fill="rgba(0,0,0,0.1691299331601334)" points="1166.20367382625,726.0278733153776 1199.84769671931,634.4061786519565 1195.2806607279995,831.6231310914292"></polygon><polygon fill="rgba(0,0,0,0.15536135217462724)" points="1199.84769671931,634.4061786519565 1195.2806607279995,831.6231310914292 1339.2525442760584,680.725642084591"></polygon><polygon fill="rgba(0,0,0,0.10856206203148022)" points="1195.2806607279995,831.6231310914292 1339.2525442760584,680.725642084591 1339.6195699408884,878.1125131515524"></polygon><polygon fill="rgba(0,0,0,0.07006083361570348)" points="1339.2525442760584,680.725642084591 1339.6195699408884,878.1125131515524 1544.3661227087714,880.0638875601626"></polygon><polygon fill="rgba(0,0,0,0.31565821135672045)" points="1339.2525442760584,680.725642084591 1489.7375435982613,666.4515079679638 1544.3661227087714,880.0638875601626"></polygon><polygon fill="rgba(0,0,0,0.10181926847688183)" points="1489.7375435982613,666.4515079679638 1544.3661227087714,880.0638875601626 1596.8335005162296,860.3942901108535"></polygon><polygon fill="rgba(0,0,0,0.32708114303464725)" points="1489.7375435982613,666.4515079679638 1603.6873724851287,631.6172958765308 1596.8335005162296,860.3942901108535"></polygon><polygon fill="rgba(0,0,0,0.12667598452656492)" points="1603.6873724851287,631.6172958765308 1596.8335005162296,860.3942901108535 1794.1865405013757,717.8172621998888"></polygon><polygon fill="rgba(0,0,0,0.07146587794354486)" points="1596.8335005162296,860.3942901108535 1794.1865405013757,717.8172621998888 1860.8231112366748,767.0287078832749"></polygon><polygon fill="rgba(0,0,0,0.10276881308305885)" points="1794.1865405013757,717.8172621998888 1860.8231112366748,767.0287078832749 1932,830.0708818103689"></polygon><polygon fill="rgba(0,0,0,0.2886390530744541)" points="1794.1865405013757,717.8172621998888 1932,750.0685781018458 1932,830.0708818103689"></polygon><polygon fill="rgba(0,0,0,0.225831483690788)" points="0,833.9490392375176 0,966 106.49280750887414,966"></polygon><polygon fill="rgba(0,0,0,0.2099621847188903)" points="0,833.9490392375176 79.21400704261455,896.894632620228 106.49280750887414,966"></polygon><polygon fill="rgba(0,0,0,0.031210845428629026)" points="79.21400704261455,896.894632620228 106.49280750887414,966 283.833678243324,966"></polygon><polygon fill="rgba(0,0,0,0.06785105804478626)" points="79.21400704261455,896.894632620228 333.5467837960277,872.9780200223529 283.833678243324,966"></polygon><polygon fill="rgba(0,0,0,0.1734680572852104)" points="333.5467837960277,872.9780200223529 283.833678243324,966 364.87841338015073,868.094539026909"></polygon><polygon fill="rgba(0,0,0,0.1801794260494942)" points="283.833678243324,966 364.87841338015073,868.094539026909 398.19668934008934,966"></polygon><polygon fill="rgba(0,0,0,0.04746953092907402)" points="364.87841338015073,868.094539026909 398.19668934008934,966 607.8921552828292,966"></polygon><polygon fill="rgba(0,0,0,0.06930109492678223)" points="364.87841338015073,868.094539026909 507.43272312045326,766.637266785162 607.8921552828292,966"></polygon><polygon fill="rgba(0,0,0,0.14883284977741362)" points="507.43272312045326,766.637266785162 607.8921552828292,966 649.1304696565685,896.4285998221108"></polygon><polygon fill="rgba(0,0,0,0.0019877693672082732)" points="607.8921552828292,966 649.1304696565685,896.4285998221108 703.2998209561871,966"></polygon><polygon fill="rgba(0,0,0,0.30685986356695066)" points="649.1304696565685,896.4285998221108 703.2998209561871,966 817.5628598992707,966"></polygon><polygon fill="rgba(0,0,0,0.092155792067987)" points="649.1304696565685,896.4285998221108 835.5550294380868,770.8957783998991 817.5628598992707,966"></polygon><polygon fill="rgba(0,0,0,0.2758247340049092)" points="835.5550294380868,770.8957783998991 817.5628598992707,966 946.3863402011287,785.3789791956328"></polygon><polygon fill="rgba(0,0,0,0.09430092528283851)" points="817.5628598992707,966 946.3863402011287,785.3789791956328 940.2584797015425,966"></polygon><polygon fill="rgba(0,0,0,0.16061235126251264)" points="946.3863402011287,785.3789791956328 940.2584797015425,966 1117.4644095636759,966"></polygon><polygon fill="rgba(0,0,0,0.13776527298609353)" points="946.3863402011287,785.3789791956328 1160.58131101852,771.3330531023119 1117.4644095636759,966"></polygon><polygon fill="rgba(0,0,0,0.020332539852459974)" points="1160.58131101852,771.3330531023119 1117.4644095636759,966 1195.2806607279995,831.6231310914292"></polygon><polygon fill="rgba(0,0,0,0.09342366631918127)" points="1117.4644095636759,966 1195.2806607279995,831.6231310914292 1252.1174894731837,966"></polygon><polygon fill="rgba(0,0,0,0.15536095486416293)" points="1195.2806607279995,831.6231310914292 1252.1174894731837,966 1411.9214931303075,966"></polygon><polygon fill="rgba(0,0,0,0.29680835073282336)" points="1195.2806607279995,831.6231310914292 1339.6195699408884,878.1125131515524 1411.9214931303075,966"></polygon><polygon fill="rgba(0,0,0,0.2520151647674486)" points="1339.6195699408884,878.1125131515524 1411.9214931303075,966 1544.3661227087714,880.0638875601626"></polygon><polygon fill="rgba(0,0,0,0.2897988595666843)" points="1411.9214931303075,966 1544.3661227087714,880.0638875601626 1474.915934601748,966"></polygon><polygon fill="rgba(0,0,0,0.18231505097844095)" points="1544.3661227087714,880.0638875601626 1474.915934601748,966 1596.8335005162296,860.3942901108535"></polygon><polygon fill="rgba(0,0,0,0.04536977867194003)" points="1474.915934601748,966 1596.8335005162296,860.3942901108535 1682.6178950553647,966"></polygon><polygon fill="rgba(0,0,0,0.2681957042190782)" points="1596.8335005162296,860.3942901108535 1682.6178950553647,966 1822.402274833728,966"></polygon><polygon fill="rgba(0,0,0,0.09911535486160757)" points="1596.8335005162296,860.3942901108535 1860.8231112366748,767.0287078832749 1822.402274833728,966"></polygon><polygon fill="rgba(0,0,0,0.16360133794135756)" points="1860.8231112366748,767.0287078832749 1822.402274833728,966 1932,830.0708818103689"></polygon><polygon fill="rgba(0,0,0,0.02532595162598687)" points="1822.402274833728,966 1932,830.0708818103689 1932,966"></polygon></svg>